<svg version="1.1" id="Layer_1" xmlns="http://www.w3.org/2000/svg" xmlns:xlink="http://www.w3.org/1999/xlink" x="0px" y="0px"
	 width="100%" viewBox="0 0 4061 1266" enable-background="new 0 0 4061 1266" xml:space="preserve">
<path fill="#262D35" opacity="1.000000" stroke="none" 
	d="
M2568.000000,1268.000000 
	C1712.000000,1268.000000 857.000000,1268.000000 2.000000,1268.000000 
	C2.000000,846.000000 2.000000,424.000000 2.000000,2.000000 
	C1356.000000,2.000000 2710.000000,2.000000 4064.000000,2.000000 
	C4064.000000,424.000000 4064.000000,846.000000 4064.000000,1268.000000 
	C3565.666748,1268.000000 3067.333252,1268.000000 2568.000000,1268.000000 
M758.808716,1084.056885 
	C757.361633,1085.733154 755.914551,1087.409424 754.467468,1089.085571 
	C754.746582,1089.381958 755.025696,1089.678345 755.304810,1089.974731 
	C757.021851,1089.085449 758.738892,1088.196045 762.046387,1087.027954 
	C780.551392,1080.027222 799.686584,1078.262939 819.096863,1081.291748 
	C832.227783,1083.340698 845.517944,1085.488403 858.134155,1089.491577 
	C887.003113,1098.651855 915.515076,1108.940674 944.147888,1118.840942 
	C967.474304,1126.906250 990.964233,1134.314575 1015.635315,1137.067627 
	C1041.140503,1139.913818 1065.533325,1136.945190 1087.693726,1122.854248 
	C1089.783691,1121.525269 1091.573975,1119.724976 1094.060303,1117.687012 
	C1089.578613,1114.354614 1085.905762,1111.540161 1082.148193,1108.843750 
	C1065.636841,1096.994873 1049.155151,1085.103516 1032.558472,1073.375000 
	C1016.508179,1062.032593 1000.540283,1050.553345 984.152527,1039.714355 
	C966.044678,1027.737793 946.648438,1018.246338 926.180237,1010.782104 
	C886.088135,996.161560 849.767395,1001.851074 816.640747,1029.059204 
	C796.252380,1045.805176 777.779236,1064.445312 758.808716,1084.056885 
M1113.270874,674.192932 
	C1132.018066,663.380310 1150.613403,652.292969 1169.548462,641.819763 
	C1197.521606,626.347656 1225.927612,611.652527 1253.791260,595.989624 
	C1278.810669,581.925537 1302.340210,565.603271 1323.833984,546.447632 
	C1372.906982,502.713135 1398.368164,447.764526 1402.199707,382.417511 
	C1404.201294,348.282593 1401.179199,314.533630 1394.852295,281.015686 
	C1394.195923,277.538513 1393.351562,274.096802 1392.222534,268.939880 
	C1388.706665,273.408630 1386.296997,276.476776 1383.881714,279.540375 
	C1361.451782,307.990234 1334.150635,330.398773 1301.511230,346.277557 
	C1278.598145,357.424622 1254.480835,364.828552 1229.613037,369.997681 
	C1191.671265,377.884369 1153.081909,380.455841 1114.610352,383.998871 
	C1084.075928,386.810944 1053.640381,390.230438 1023.882690,398.098633 
	C971.097839,412.055450 931.006592,442.007996 906.744629,491.545349 
	C901.196594,502.873138 897.085327,514.903931 892.290405,526.602051 
	C891.495422,528.541687 890.585205,530.434143 889.728271,532.348450 
	C883.013794,490.083008 898.253113,454.450378 921.946045,421.443481 
	C920.840759,420.424530 920.219788,419.585175 919.388306,419.132782 
	C916.173035,417.383514 912.932739,415.669067 909.626709,414.099579 
	C881.000977,400.509918 850.547852,393.388763 819.282715,390.084351 
	C782.187317,386.163818 744.979675,383.297516 707.813843,380.053284 
	C646.973267,374.742340 591.306641,355.439087 542.873413,317.699280 
	C525.039856,303.803131 508.553711,288.177979 491.449646,273.345367 
	C489.542847,271.691803 487.613861,270.063873 485.650513,268.385895 
	C484.880249,269.473755 484.284607,269.930023 484.236237,270.438354 
	C481.713470,296.958649 478.123901,323.437988 477.040710,350.019165 
	C475.720428,382.418610 479.076630,414.574341 488.816040,445.787994 
	C504.065918,494.662140 534.207397,532.689209 574.319397,563.503357 
	C598.439636,582.032593 624.492126,597.490906 651.221375,611.846008 
	C678.797546,626.655762 706.624084,641.003052 734.106934,655.982239 
	C760.475952,670.354309 785.741211,686.461243 808.504944,706.225769 
	C839.997986,733.569580 862.531189,766.634094 873.274048,807.285767 
	C880.600769,835.010803 881.378357,863.218628 879.773254,891.624756 
	C879.616333,894.401428 879.752197,897.194641 879.752197,901.411987 
	C918.752991,882.141418 958.382019,869.317322 1000.359253,864.434143 
	C1000.616638,859.632812 1000.868164,856.008362 1000.996887,852.379517 
	C1002.846924,800.208313 1021.121765,755.013794 1058.145874,717.782654 
	C1074.436035,701.401428 1092.737549,687.548889 1113.270874,674.192932 
M1113.111206,1087.848999 
	C1123.874634,1094.511353 1134.779663,1100.958496 1145.345215,1107.921143 
	C1151.156006,1111.750488 1156.423096,1112.109497 1163.037476,1109.692261 
	C1227.444824,1086.155151 1286.508301,1053.203125 1339.947021,1010.210327 
	C1341.934448,1008.611572 1343.723389,1006.766235 1345.943115,1004.724609 
	C1344.160889,1003.388550 1342.933350,1002.279419 1341.538940,1001.450867 
	C1316.337891,986.475281 1291.382324,971.061157 1265.840454,956.689758 
	C1222.203491,932.137146 1177.061890,910.846741 1128.755127,896.920349 
	C1068.869263,879.655762 1008.745117,876.833679 948.311523,894.048828 
	C896.592957,908.781555 850.880859,934.988220 808.440308,967.409973 
	C807.861389,967.852112 807.730225,968.880249 807.333618,969.760132 
	C808.364685,969.864563 809.025757,970.023438 809.671448,969.975525 
	C810.664246,969.901794 811.653992,969.723022 812.632324,969.525757 
	C865.166687,958.930481 915.573975,965.739624 963.263977,989.719849 
	C984.035767,1000.164612 1004.170593,1012.167542 1023.531311,1025.059692 
	C1053.473877,1044.998291 1082.504272,1066.306885 1113.111206,1087.848999 
M3320.868652,621.013489 
	C3321.336670,660.488220 3321.804932,699.962952 3322.283691,740.324036 
	C3293.791992,689.514099 3265.750977,639.507812 3238.055908,590.118042 
	C3214.289062,590.118042 3191.833496,590.118042 3169.449707,590.118042 
	C3169.449707,671.765198 3169.449707,752.649231 3169.449707,833.641113 
	C3189.758057,833.641113 3209.509766,833.641113 3229.848145,833.641113 
	C3229.848145,808.248962 3230.133301,783.629089 3229.767090,759.018982 
	C3229.406738,734.814453 3228.385254,710.619812 3227.653564,686.420837 
	C3230.486328,688.158325 3231.615723,690.112427 3232.731201,692.074524 
	C3258.404785,737.236145 3284.147461,782.358704 3309.648438,827.617554 
	C3312.427734,832.549744 3315.419434,834.718140 3321.310059,834.572693 
	C3338.627930,834.145203 3355.962891,834.443298 3373.291260,834.398010 
	C3375.853271,834.391296 3378.414062,834.063171 3381.180664,833.869385 
	C3381.180664,752.184387 3381.180664,671.126465 3381.180664,589.849976 
	C3360.986572,589.849976 3341.452148,589.849976 3320.868652,589.849976 
	C3320.868652,599.880005 3320.868652,609.450623 3320.868652,621.013489 
M2798.035156,810.965454 
	C2798.035156,737.429565 2798.035156,663.893616 2798.035156,590.086792 
	C2777.235840,590.086792 2757.497314,590.086792 2736.500488,590.086792 
	C2737.251465,640.770447 2737.991943,690.732178 2738.730469,740.573669 
	C2710.462646,690.188904 2682.206299,639.824707 2654.201660,589.909180 
	C2630.756348,589.909180 2608.566650,589.909180 2586.035400,589.909180 
	C2586.035400,671.503113 2586.035400,752.563293 2586.035400,833.851196 
	C2606.158447,833.851196 2625.634277,833.851196 2646.604492,833.851196 
	C2645.911621,784.333496 2645.226562,735.384460 2644.513428,684.416260 
	C2646.580078,687.880676 2647.718750,689.712708 2648.783691,691.586548 
	C2674.449707,736.747192 2700.188721,781.867004 2725.659424,827.137634 
	C2728.616211,832.393127 2731.862549,834.703735 2738.072266,834.553345 
	C2755.387695,834.134094 2772.720215,834.440308 2790.045166,834.371155 
	C2792.557373,834.361145 2795.067383,833.863586 2798.035156,833.542175 
	C2798.035156,826.211487 2798.035156,819.582397 2798.035156,810.965454 
M1838.780884,698.999512 
	C1838.780884,743.890137 1838.780884,788.780762 1838.780884,833.822998 
	C1860.187744,833.822998 1880.357300,833.822998 1901.541748,833.822998 
	C1901.541748,803.412720 1901.541748,773.577820 1901.541748,742.721497 
	C1915.113892,742.721497 1927.680054,742.655334 1940.245483,742.735046 
	C1967.738281,742.909424 1976.694946,751.636536 1977.898804,779.027649 
	C1978.454346,791.668091 1978.985596,804.322021 1980.092773,816.920227 
	C1980.601929,822.713684 1982.469971,828.387695 1983.645508,833.766296 
	C2006.481201,833.766296 2027.997803,833.766296 2051.252441,833.766296 
	C2049.539795,829.420715 2048.318115,826.227234 2047.025024,823.062866 
	C2045.402222,819.091431 2042.990479,815.279236 2042.226685,811.156128 
	C2040.898315,803.985107 2040.497803,796.635193 2039.840942,789.348328 
	C2038.616089,775.760742 2037.836182,762.122620 2036.214233,748.584290 
	C2034.724365,736.147217 2027.772949,727.131348 2016.722534,721.236328 
	C2014.618530,720.113831 2012.684692,718.672424 2009.920044,716.894165 
	C2035.854126,703.307495 2047.753540,682.819946 2046.883789,654.568848 
	C2045.887817,622.217346 2030.401733,602.204163 1999.145264,594.013123 
	C1985.169800,590.350647 1970.916504,589.358826 1956.547974,589.358826 
	C1920.892822,589.358765 1885.237793,589.358337 1849.582642,589.358154 
	C1846.330811,589.358093 1843.078979,589.358154 1838.780884,589.358154 
	C1838.780884,625.893616 1838.780884,661.446533 1838.780884,698.999512 
M2502.248291,353.196228 
	C2513.993408,339.845398 2517.367188,323.903961 2516.636719,306.693390 
	C2515.283936,274.823395 2500.511475,255.424820 2469.597900,247.941330 
	C2455.488770,244.525848 2440.658203,242.978775 2426.113525,242.693588 
	C2389.466309,241.975021 2352.795166,242.442902 2316.133789,242.484070 
	C2313.926025,242.486557 2311.718994,242.916580 2309.404785,243.158829 
	C2309.404785,324.973389 2309.404785,406.105957 2309.404785,487.209045 
	C2330.267578,487.209045 2350.421631,487.209045 2371.523193,487.209045 
	C2371.523193,456.725922 2371.523193,426.886292 2371.523193,396.054779 
	C2383.372559,396.054779 2394.286865,395.947357 2405.197510,396.097443 
	C2411.180176,396.179749 2417.248047,396.148590 2423.118164,397.126282 
	C2437.321289,399.491821 2444.169678,406.496552 2446.409668,420.643372 
	C2447.343994,426.543732 2447.506104,432.572418 2447.903076,438.550507 
	C2448.631104,449.513977 2448.992188,460.510773 2450.068115,471.438324 
	C2450.607422,476.916779 2452.383789,482.273468 2453.499756,487.237061 
	C2476.342285,487.237061 2497.860596,487.237061 2521.189453,487.237061 
	C2519.482178,482.914154 2518.275146,479.744202 2516.981201,476.610168 
	C2515.345215,472.647644 2512.958252,468.853058 2512.118164,464.736450 
	C2510.793457,458.245239 2510.363281,451.557190 2509.775635,444.932861 
	C2508.510254,430.677765 2507.750977,416.367645 2506.093750,402.160645 
	C2504.645996,389.750916 2497.790039,380.623627 2486.743164,374.697876 
	C2484.633301,373.566193 2482.589600,372.311554 2480.699951,371.220367 
	C2488.005615,365.211426 2494.657471,359.740143 2502.248291,353.196228 
M2082.690918,675.879272 
	C2077.516357,700.309570 2076.934326,724.791504 2082.160156,749.278381 
	C2093.329590,801.616211 2134.064941,839.712830 2187.302734,840.820312 
	C2217.978516,841.458435 2244.413818,832.810059 2264.381348,808.372009 
	C2265.172852,807.403198 2266.221924,806.645020 2268.269043,804.758606 
	C2270.145752,815.182739 2271.816162,824.460205 2273.534180,834.002991 
	C2286.687744,834.002991 2299.246338,834.002991 2312.044922,834.002991 
	C2312.044922,789.459045 2312.044922,745.333618 2312.044922,701.341614 
	C2275.145508,701.341614 2238.958984,701.341614 2202.749023,701.341614 
	C2202.749023,717.140137 2202.749023,732.269836 2202.749023,748.400635 
	C2220.847168,748.400635 2238.266846,748.400635 2256.416992,748.400635 
	C2252.743164,766.909607 2242.996826,779.060242 2226.647705,785.637329 
	C2195.020264,798.360840 2162.969727,785.126953 2150.056152,753.274292 
	C2139.364990,726.903564 2139.775879,699.799988 2149.295410,673.181458 
	C2152.142822,665.219971 2157.045654,657.647034 2162.361328,650.975342 
	C2184.186768,623.581360 2234.962402,626.313171 2249.426514,660.871399 
	C2249.912109,662.031128 2250.720459,663.055725 2251.118652,663.714355 
	C2271.221924,663.714355 2290.670166,663.714355 2310.901367,663.714355 
	C2304.672607,632.257141 2288.801025,608.940186 2260.889893,594.434021 
	C2241.138916,584.168884 2219.808350,581.448425 2197.852783,582.190979 
	C2139.916504,584.150452 2097.486084,618.212769 2082.690918,675.879272 
M3425.829346,759.155945 
	C3438.402832,799.952393 3464.853027,826.555420 3506.466797,837.199585 
	C3525.381592,842.037598 3544.722656,842.621948 3564.010986,839.829163 
	C3611.214844,832.994568 3643.585449,807.447388 3658.419189,761.838562 
	C3669.322998,728.312195 3669.050293,694.101196 3657.913086,660.647461 
	C3645.216064,622.507629 3618.979980,597.900513 3579.897217,587.462219 
	C3560.628662,582.315979 3541.021240,581.978149 3521.386475,584.222412 
	C3474.265381,589.608215 3438.419189,620.059631 3425.697998,665.813904 
	C3417.225586,696.286743 3417.496582,726.976501 3425.829346,759.155945 
M2788.736572,273.748505 
	C2777.211182,286.641479 2769.118652,301.517395 2764.546387,318.092834 
	C2755.759766,349.947357 2755.256348,382.107178 2764.934326,413.731995 
	C2777.673340,455.359680 2805.671143,481.517212 2848.331055,491.352722 
	C2864.382812,495.053528 2880.729248,495.161133 2897.055176,493.871429 
	C2948.896973,489.775940 2988.242676,455.925507 3000.046143,405.302155 
	C3005.722900,380.955353 3005.863281,356.407013 3001.413574,331.897797 
	C2997.978027,312.975250 2990.806885,295.507751 2978.915039,280.192413 
	C2958.009766,253.268860 2929.893799,239.893616 2896.476562,237.086731 
	C2855.871338,233.676071 2818.836914,241.493698 2788.736572,273.748505 
M2081.694092,358.999908 
	C2081.825928,401.302704 2081.957275,443.605499 2082.111084,485.908203 
	C2082.112061,486.176270 2082.400391,486.468231 2082.606445,486.703735 
	C2082.823975,486.951996 2083.103271,487.145691 2083.357178,487.348328 
	C2145.865234,487.348328 2208.373291,487.348328 2271.338379,487.348328 
	C2271.338379,470.713562 2271.338379,454.602203 2271.338379,437.400391 
	C2228.990479,437.400391 2187.208740,437.400391 2145.606934,437.400391 
	C2143.766846,424.591858 2144.158691,393.008911 2146.345459,385.098816 
	C2182.895996,385.098816 2219.730469,385.098816 2256.808350,385.098816 
	C2256.808350,368.313293 2256.808350,352.521576 2256.808350,335.882324 
	C2219.301270,335.882324 2182.454346,335.882324 2144.801270,335.882324 
	C2144.348633,321.293671 2144.521973,307.579315 2144.616943,293.207520 
	C2186.538330,293.030121 2226.997803,293.288330 2267.172852,293.058350 
	C2267.172852,275.417389 2267.172852,259.275391 2267.172852,243.245468 
	C2248.559326,241.211899 2089.082031,242.037750 2081.694092,244.285126 
	C2081.694092,281.743286 2081.694092,319.371582 2081.694092,358.999908 
M2358.043945,679.000000 
	C2358.043945,730.537109 2358.043945,782.074158 2358.043945,833.724854 
	C2422.043945,833.724854 2484.811523,833.724854 2547.562012,833.724854 
	C2547.562012,816.898743 2547.562012,800.775269 2547.562012,784.111450 
	C2505.126953,783.743408 2463.357666,784.332336 2421.727051,783.778564 
	C2421.727051,765.899109 2421.727051,749.381348 2421.727051,732.161072 
	C2459.393555,731.745850 2496.485596,732.332031 2533.362793,731.834839 
	C2533.362793,714.803772 2533.362793,699.261353 2533.362793,682.682983 
	C2520.592773,682.682983 2508.341797,682.683044 2496.090576,682.683044 
	C2483.426758,682.683044 2470.762451,682.721985 2458.098877,682.671753 
	C2445.915283,682.623474 2433.714355,682.905518 2421.778809,682.476440 
	C2421.778809,667.623169 2421.778809,654.128174 2421.778809,639.868591 
	C2462.876953,639.831970 2503.325928,639.883484 2543.519043,639.839478 
	C2543.519043,622.170227 2543.519043,606.006226 2543.519043,589.846680 
	C2481.568359,589.846680 2420.354492,589.846680 2358.043945,589.846680 
	C2358.043945,619.208923 2358.043945,648.104431 2358.043945,679.000000 
M1948.386108,440.235687 
	C1937.514771,443.040894 1926.639282,442.979919 1915.764648,440.264496 
	C1904.392090,437.424652 1896.807007,430.310760 1894.170898,419.015045 
	C1892.372070,411.307648 1891.380127,403.237915 1891.337891,395.323151 
	C1891.084839,347.994507 1891.222778,300.663879 1891.190796,253.333908 
	C1891.188354,249.840134 1890.880249,246.346542 1890.727417,243.133057 
	C1869.595459,243.133057 1849.773804,243.133057 1829.529541,243.133057 
	C1829.379028,246.406494 1829.154663,249.023575 1829.153564,251.640747 
	C1829.133667,298.304108 1829.097412,344.967529 1829.189209,391.630707 
	C1829.202881,398.619873 1829.588379,405.631683 1830.237427,412.592377 
	C1834.001099,452.954163 1856.464722,479.609039 1895.748535,490.042816 
	C1918.713257,496.142242 1941.912842,496.069611 1965.067505,491.105682 
	C1977.219849,488.500488 1988.505981,483.635345 1998.897583,476.719940 
	C2017.045166,464.642792 2028.551147,448.025452 2031.988525,426.494934 
	C2033.925171,414.363953 2035.244629,402.003296 2035.346313,389.733734 
	C2035.730347,343.406860 2035.513916,297.074921 2035.469604,250.744919 
	C2035.467163,248.206573 2034.987549,245.668671 2034.722656,243.057632 
	C2013.847168,243.057632 1993.681763,243.057632 1972.492432,243.057632 
	C1972.492432,247.228851 1972.492554,250.806595 1972.492554,254.384338 
	C1972.492432,301.381012 1972.573120,348.377960 1972.403687,395.374023 
	C1972.378662,402.318390 1971.667969,409.351440 1970.395752,416.179779 
	C1968.222290,427.846375 1961.615845,436.137329 1948.386108,440.235687 
M1753.813477,834.412537 
	C1763.811768,834.413696 1773.814941,834.612061 1783.806885,834.360718 
	C1793.887573,834.107300 1804.068359,835.463684 1815.104492,833.365295 
	C1786.246826,751.621033 1757.692261,670.735229 1729.105835,589.759155 
	C1705.733032,589.759155 1683.154907,589.759155 1660.005005,589.759155 
	C1630.780151,670.993286 1601.614380,752.062988 1572.162964,833.927002 
	C1594.500610,833.927002 1615.703003,833.927002 1637.365356,833.927002 
	C1642.025024,819.235046 1646.623413,804.736328 1651.267578,790.093140 
	C1678.763550,790.093140 1705.634277,790.093140 1732.892090,790.093140 
	C1734.064453,793.483643 1735.155640,796.575684 1736.203491,799.682251 
	C1739.396240,809.148071 1742.620605,818.603516 1745.728394,828.097107 
	C1746.786377,831.328796 1747.469238,834.726501 1753.813477,834.412537 
M1775.057617,378.041229 
	C1784.020386,369.069519 1789.561401,358.222229 1792.516357,345.989594 
	C1795.837769,332.240753 1796.586182,318.393158 1794.561523,304.334106 
	C1790.380981,275.305878 1774.462158,255.944489 1746.353394,248.040924 
	C1734.006226,244.569138 1720.805786,242.964920 1707.947876,242.701294 
	C1673.302246,241.990936 1638.632690,242.450012 1603.972534,242.474319 
	C1601.715576,242.475891 1599.458740,242.725754 1596.672485,242.891632 
	C1596.672485,324.598358 1596.672485,405.701141 1596.672485,487.296326 
	C1617.607666,487.296326 1638.053345,487.296326 1659.549683,487.296326 
	C1659.549683,458.258850 1659.549683,429.768707 1659.549683,400.240509 
	C1663.807251,400.240509 1667.057007,400.251404 1670.306763,400.238708 
	C1686.968994,400.173492 1703.653442,400.617889 1720.287720,399.900452 
	C1740.401978,399.032898 1759.016724,393.447449 1775.057617,378.041229 
M805.212524,170.297241 
	C792.020935,174.935684 778.620850,179.058945 765.672607,184.298752 
	C697.520874,211.877899 639.883667,253.576752 595.157776,312.391937 
	C592.643921,315.697632 590.321777,319.148987 587.326233,323.352295 
	C597.845398,328.359711 607.054749,332.743652 616.171448,337.083466 
	C702.716064,234.996643 811.230164,179.468750 944.642395,179.242050 
	C1078.039062,179.015366 1186.753052,234.181763 1273.361938,335.707367 
	C1282.714722,331.077667 1291.868530,326.546478 1301.874634,321.593475 
	C1299.156494,317.725342 1297.193237,314.730072 1295.031616,311.885498 
	C1261.450562,267.693268 1220.270142,232.123886 1171.292847,206.228455 
	C1054.852417,144.663498 932.974609,134.909058 805.212524,170.297241 
M2889.012451,639.403748 
	C2892.207031,639.297058 2895.167236,639.394836 2894.929688,643.912476 
	C2894.790283,646.569702 2894.948486,649.241943 2894.948486,651.907410 
	C2894.951416,708.885620 2894.950684,765.863770 2894.950928,822.841980 
	C2894.950928,826.431946 2894.950928,830.021912 2894.950928,833.691284 
	C2916.520264,833.691284 2936.966797,833.691284 2958.219238,833.691284 
	C2958.219238,768.791443 2958.219238,704.621216 2958.219238,639.317261 
	C2981.813721,639.317261 3004.621826,639.317261 3027.472656,639.317261 
	C3027.472656,622.093506 3027.472656,606.022705 3027.472656,590.042114 
	C3006.672852,588.108459 2832.545166,588.916809 2825.603516,590.853210 
	C2825.603516,606.783569 2825.603516,622.652954 2825.603516,639.398071 
	C2846.490723,639.398071 2866.744385,639.398071 2889.012451,639.403748 
M2681.254883,292.481018 
	C2700.840088,292.481018 2720.425293,292.481018 2740.369141,292.481018 
	C2740.369141,275.434692 2740.369141,259.306610 2740.369141,243.155884 
	C2672.609375,243.155884 2605.534912,243.155884 2538.342285,243.155884 
	C2538.342285,259.718079 2538.342285,275.580109 2538.342285,292.554321 
	C2561.570068,292.554321 2584.350342,292.554321 2608.121094,292.554321 
	C2608.121094,358.069580 2608.121094,422.477692 2608.121094,487.369598 
	C2629.314209,487.369598 2649.485107,487.369598 2670.668457,487.369598 
	C2670.668457,422.694427 2670.668457,358.229340 2670.668457,293.198730 
	C2674.184570,292.906891 2676.747070,292.694244 2681.254883,292.481018 
M675.545044,983.810852 
	C657.725220,977.377625 639.715698,971.418213 622.137939,964.380249 
	C603.926941,957.088684 586.212341,948.568054 568.140869,940.914734 
	C541.075928,929.452820 513.186218,920.688293 483.931946,916.907837 
	C474.998535,915.753418 466.008392,914.216980 456.600769,915.087341 
	C457.150452,916.603699 457.240845,917.308228 457.613647,917.797791 
	C458.822510,919.385071 460.115326,920.910217 461.410004,922.430237 
	C516.307739,986.879517 581.512695,1038.153076 657.212097,1076.156494 
	C664.082458,1079.605591 669.965698,1079.929688 677.020935,1077.290771 
	C698.874573,1069.116455 717.816589,1056.304810 735.371216,1041.331909 
	C754.617676,1024.916016 773.509399,1008.084045 792.521667,991.394592 
	C793.190857,990.807129 793.495911,989.804871 794.509521,988.077881 
	C754.581238,994.664368 715.660034,994.546387 675.545044,983.810852 
M3056.908447,794.998169 
	C3056.908447,807.895874 3056.908447,820.793579 3056.908447,833.503723 
	C3071.636963,835.354858 3112.551514,834.778625 3119.512695,832.738464 
	C3119.512695,751.985229 3119.512695,671.177063 3119.512695,589.920471 
	C3098.692627,589.920471 3078.225830,589.920471 3056.908447,589.920471 
	C3056.908447,657.993713 3056.908447,725.496277 3056.908447,794.998169 
M761.999146,907.568420 
	C748.938171,903.691833 735.686157,900.353455 722.864197,895.803406 
	C706.579041,890.024414 690.640869,883.266968 674.556335,876.923218 
	C653.811646,868.741516 632.944214,860.975220 610.903748,856.884277 
	C578.713135,850.909302 548.655945,855.567261 521.466858,874.639587 
	C519.482483,876.031616 517.791443,877.841797 515.215271,880.119629 
	C558.445557,898.074890 598.376343,920.282776 641.807800,934.454651 
	C660.527222,940.562805 679.540588,945.220154 699.184509,947.075256 
	C739.753113,950.906311 776.324158,940.673645 808.746216,915.901428 
	C810.433655,914.612122 811.895020,913.026855 813.461609,911.579346 
	C796.331726,912.496887 779.958008,910.996216 761.999146,907.568420 
M1397.342407,573.467834 
	C1395.623413,550.848877 1393.650513,528.270447 1387.407593,505.345581 
	C1378.906372,516.823669 1371.033569,527.078552 1363.684204,537.695801 
	C1362.231323,539.794800 1362.142456,543.377502 1362.522095,546.124268 
	C1368.179688,587.044983 1367.215332,627.846619 1360.018311,668.452209 
	C1344.982666,753.283691 1308.804565,827.606201 1249.004272,890.056519 
	C1247.267212,891.870422 1245.656738,893.805420 1243.304688,896.451904 
	C1254.238770,901.230530 1264.123291,905.550415 1274.739868,910.190247 
	C1361.298096,814.627686 1401.448608,703.140076 1397.342407,573.467834 
M526.049072,565.842834 
	C526.172485,564.183105 526.038208,562.453796 526.463989,560.875671 
	C528.286560,554.120544 526.698303,548.606934 521.225342,544.080444 
	C519.200928,542.406189 517.619263,540.169373 515.951965,538.095703 
	C511.024139,531.966919 506.154419,525.791443 499.790955,517.782959 
	C481.490417,633.564209 501.314209,739.422302 560.208801,837.301147 
	C573.091858,836.405762 584.422119,835.618347 596.536072,834.776428 
	C543.268921,752.895447 519.280212,664.298645 526.049072,565.842834 
M3234.647705,1044.798828 
	C3230.211426,1034.429443 3225.775391,1024.060059 3221.378906,1013.783691 
	C3222.407715,1012.692078 3223.034912,1011.932007 3223.756104,1011.275269 
	C3235.822266,1000.288696 3239.044678,986.733643 3233.197754,971.485535 
	C3228.400635,958.974304 3218.495850,952.843262 3202.140381,952.631226 
	C3189.150635,952.462708 3176.156494,952.562195 3163.165039,952.623779 
	C3160.598389,952.635925 3158.033691,953.017761 3155.100586,953.259338 
	C3155.100586,985.653931 3155.100586,1017.451172 3155.100586,1049.734009 
	C3163.835693,1049.734009 3172.013184,1049.734009 3181.489258,1049.734009 
	C3181.489258,1039.945923 3181.489258,1030.500610 3181.489258,1021.219849 
	C3195.545166,1019.809143 3195.524658,1019.818237 3200.616211,1031.275391 
	C3203.418457,1037.580688 3206.302979,1043.849487 3209.162354,1050.161133 
	C3217.546875,1050.161133 3225.190674,1050.168579 3232.834229,1050.157227 
	C3235.604736,1050.153198 3236.169678,1048.655762 3234.647705,1044.798828 
M2774.426270,1043.751465 
	C2782.524658,1038.726929 2787.269287,1031.189575 2789.584717,1022.236694 
	C2793.237305,1008.112549 2793.129639,993.853271 2789.305664,979.765442 
	C2785.558838,965.961792 2776.235596,957.629578 2762.511719,954.332642 
	C2758.019287,953.253357 2753.295898,952.784424 2748.665771,952.698669 
	C2736.683838,952.476685 2724.694336,952.573547 2712.708984,952.669067 
	C2710.546143,952.686340 2708.388184,953.303223 2706.554932,953.591797 
	C2706.554932,986.108582 2706.554932,1017.895752 2706.554932,1049.969360 
	C2723.215088,1049.969360 2739.182861,1050.463623 2755.092285,1049.717773 
	C2761.166504,1049.432983 2767.107422,1046.307739 2774.426270,1043.751465 
M2992.688477,990.351929 
	C2983.193359,990.314575 2973.697998,990.277283 2964.370117,990.240601 
	C2964.370117,984.508728 2964.370117,980.283264 2964.370117,974.844543 
	C2979.593018,974.844543 2994.378662,974.844543 3008.865967,974.844543 
	C3008.865967,966.798523 3008.865967,960.022034 3008.865967,953.041992 
	C2984.849365,953.041992 2961.651367,953.041992 2938.010254,953.041992 
	C2938.010254,985.525085 2938.010254,1017.570801 2938.010254,1049.437500 
	C2962.162109,1049.437500 2985.603271,1049.437500 3009.107910,1049.437500 
	C3009.107910,1042.148560 3009.107910,1035.641968 3009.107910,1027.933350 
	C2993.795898,1027.933350 2979.007812,1027.933350 2964.557129,1027.933350 
	C2964.557129,1022.195923 2964.557129,1017.691223 2964.557129,1012.148438 
	C2977.995117,1012.148438 2990.793213,1012.148438 3003.763184,1012.148438 
	C3003.763184,1004.542419 3003.763184,998.022400 3003.763184,990.884583 
	C3000.420654,990.690186 2997.513428,990.521118 2992.688477,990.351929 
M1331.185303,951.624390 
	C1342.638184,954.999023 1354.090942,958.373718 1365.217529,961.652222 
	C1382.945557,946.071045 1431.008301,888.948914 1433.958252,879.670471 
	C1425.126099,880.130737 1416.504517,880.231995 1407.959717,881.094177 
	C1387.050049,883.204041 1368.126465,891.352661 1349.757568,901.005920 
	C1328.554199,912.148682 1307.356445,923.301697 1286.182007,934.499207 
	C1285.399414,934.913147 1284.889648,935.842712 1283.619995,937.216919 
	C1299.363770,941.970276 1314.511475,946.543518 1331.185303,951.624390 
M1878.272217,952.614563 
	C1856.382202,952.614563 1834.492188,952.614563 1812.463623,952.614563 
	C1812.463623,985.711853 1812.463623,1017.536072 1812.463623,1049.575073 
	C1836.491333,1049.575073 1859.941895,1049.575073 1883.344727,1049.575073 
	C1883.344727,1042.170654 1883.344727,1035.422607 1883.344727,1027.734741 
	C1868.056885,1027.734741 1853.549316,1027.734741 1838.989746,1027.734741 
	C1838.989746,1022.285706 1838.989746,1017.816589 1838.989746,1012.408325 
	C1852.448608,1012.408325 1865.299561,1012.408325 1878.526611,1012.408325 
	C1878.526611,1004.655762 1878.526611,997.871582 1878.526611,990.129761 
	C1864.991821,990.129761 1852.150269,990.129761 1839.021851,990.129761 
	C1839.021851,984.715027 1839.021851,980.280212 1839.021851,974.907654 
	C1854.223755,974.907654 1868.788940,974.907654 1884.074951,974.907654 
	C1884.074951,968.030762 1884.296997,962.074036 1883.895630,956.159546 
	C1883.810913,954.911011 1881.442871,953.817322 1878.272217,952.614563 
M1588.508423,967.290039 
	C1588.508423,980.952393 1588.450439,994.614990 1588.524658,1008.276978 
	C1588.599731,1022.092651 1588.190430,1035.932617 1588.798706,1049.893799 
	C1598.348633,1050.209961 1606.505005,1050.736328 1615.394531,1049.566040 
	C1615.394531,1040.166748 1615.394531,1031.619141 1615.394531,1022.027283 
	C1622.772583,1022.027283 1629.358643,1022.184143 1635.934937,1021.997803 
	C1656.091431,1021.426880 1669.552246,1007.497375 1669.528564,987.395935 
	C1669.504150,966.660583 1656.937622,953.403381 1636.349976,952.652039 
	C1629.028687,952.384766 1621.689575,952.597473 1614.358643,952.595154 
	C1606.115845,952.592590 1597.873047,952.594666 1588.508423,952.594666 
	C1588.508423,957.570068 1588.508423,961.475708 1588.508423,967.290039 
M2473.343018,1020.065125 
	C2469.922607,1029.867310 2465.079590,1039.204712 2462.825439,1049.833984 
	C2472.252197,1049.833984 2480.828125,1049.833984 2489.594727,1049.833984 
	C2492.660400,1042.672729 2495.625000,1035.748169 2498.643066,1028.698486 
	C2506.386719,1028.698486 2513.357910,1028.895264 2520.311279,1028.627563 
	C2524.773193,1028.455933 2526.860107,1030.470337 2528.241943,1034.465698 
	C2530.063965,1039.733154 2532.433105,1044.811401 2534.490234,1049.785645 
	C2543.801758,1049.785645 2552.368896,1049.785645 2562.073730,1049.785645 
	C2549.556641,1016.906921 2537.323242,984.772644 2525.282959,953.145508 
	C2515.688721,953.145508 2507.469727,953.145508 2498.874023,953.145508 
	C2490.457275,975.184998 2482.165527,996.897461 2473.343018,1020.065125 
M3581.926514,1043.259155 
	C3583.250488,1039.844360 3584.277832,1036.267700 3586.015869,1033.078491 
	C3586.979248,1031.310059 3589.071777,1029.055298 3590.756348,1028.968140 
	C3598.962891,1028.543335 3607.203369,1028.776001 3615.059326,1028.776001 
	C3618.399658,1036.673828 3621.227051,1043.358887 3623.844971,1049.548706 
	C3633.152832,1049.548706 3641.621094,1049.548706 3651.375000,1049.548706 
	C3638.854248,1016.643860 3626.717285,984.748047 3614.643555,953.018494 
	C3605.367920,953.018494 3597.133301,953.018494 3588.308838,953.018494 
	C3576.064453,985.097961 3563.877930,1017.025085 3551.222656,1050.180664 
	C3560.169434,1050.180664 3567.766113,1050.016113 3575.350586,1050.247070 
	C3579.418457,1050.370850 3580.161133,1047.489746 3581.926514,1043.259155 
M2028.240112,1032.971436 
	C2028.240112,1036.947510 2028.240112,1040.923584 2028.240112,1045.616089 
	C2046.452148,1052.498413 2064.563477,1054.557007 2082.973145,1048.242554 
	C2094.479492,1044.295776 2100.884521,1035.670288 2101.591064,1023.506775 
	C2102.287109,1011.520752 2097.599609,1001.936279 2086.643555,996.336365 
	C2081.645020,993.781372 2076.175049,992.119568 2070.854736,990.233093 
	C2067.098389,988.901306 2063.202881,987.966614 2059.428955,986.679504 
	C2056.528320,985.690125 2053.656982,984.362549 2053.924316,980.571899 
	C2054.204590,976.599182 2057.454346,975.721191 2060.414551,975.834595 
	C2068.989502,976.162842 2077.562500,976.802612 2086.102295,977.656311 
	C2089.232666,977.969238 2092.269043,979.225464 2095.924316,980.205994 
	C2095.924316,971.793701 2095.924316,964.219055 2095.924316,956.084290 
	C2079.301025,950.469788 2062.622559,949.132751 2045.898682,954.285889 
	C2033.754028,958.028015 2027.279541,967.166809 2026.571045,979.500793 
	C2025.862671,991.830872 2031.357788,1000.936768 2043.314453,1006.352417 
	C2048.139404,1008.537964 2053.316406,1009.952026 2058.349121,1011.671692 
	C2061.809570,1012.854187 2065.337158,1013.851135 2068.760986,1015.128174 
	C2072.079346,1016.365784 2074.632324,1018.381836 2074.302734,1022.443848 
	C2073.934326,1026.982544 2070.333740,1027.325073 2067.049561,1027.691895 
	C2057.308594,1028.779785 2047.786499,1027.651611 2038.501587,1024.473511 
	C2035.440674,1023.425720 2032.328125,1022.528748 2028.240356,1021.250427 
	C2028.240356,1025.271973 2028.240356,1028.217529 2028.240112,1032.971436 
M2320.097168,979.842285 
	C2322.430664,980.725159 2324.964111,981.514282 2325.064941,977.745483 
	C2325.249512,970.836182 2325.117432,963.918335 2325.117432,957.198547 
	C2316.259277,953.008911 2307.763428,951.792175 2299.090332,951.373352 
	C2261.954346,949.580261 2241.450195,970.477173 2244.260254,1007.622375 
	C2244.680420,1013.177673 2246.179199,1018.768127 2247.970215,1024.075317 
	C2250.584717,1031.822021 2255.418945,1038.346802 2262.325684,1042.751831 
	C2282.642090,1055.708984 2303.781250,1053.192505 2325.428467,1046.669800 
	C2325.428467,1038.786987 2325.459229,1032.150513 2325.392090,1025.515137 
	C2325.382812,1024.620972 2324.880371,1023.731750 2324.414062,1022.214233 
	C2321.763428,1023.071472 2319.362061,1024.190918 2316.845703,1024.598145 
	C2309.019043,1025.865234 2301.145264,1027.790039 2293.296875,1027.756714 
	C2279.959717,1027.700073 2272.966064,1021.054993 2271.471680,1007.959290 
	C2270.878906,1002.761536 2271.193115,997.302979 2272.069824,992.128357 
	C2273.800537,981.913086 2279.040039,977.133606 2289.295898,975.648315 
	C2299.387939,974.186829 2309.178711,975.625793 2320.097168,979.842285 
M3404.380371,1050.177979 
	C3409.837646,1048.698975 3407.565918,1044.185547 3407.588135,1041.016724 
	C3407.773926,1014.357422 3407.711914,987.696228 3407.664307,961.035767 
	C3407.659668,958.491577 3407.243164,955.948120 3406.994141,953.136597 
	C3398.179199,953.136597 3390.031494,953.136597 3381.333984,953.136597 
	C3381.333984,985.543518 3381.333984,1017.366516 3381.333984,1050.245728 
	C3388.692139,1050.245728 3395.598389,1050.245728 3404.380371,1050.177979 
M3383.433350,934.520630 
	C3382.895264,936.254822 3382.357178,937.988953 3381.619385,940.366394 
	C3389.767334,940.366394 3396.918213,940.366394 3404.479248,940.366394 
	C3407.103516,934.900269 3409.697754,929.582092 3412.216064,924.228516 
	C3414.690918,918.967529 3417.089111,913.670654 3419.949219,907.459961 
	C3410.942871,907.459961 3403.183838,907.459961 3395.043457,907.459961 
	C3391.316162,916.090149 3387.656494,924.563354 3383.433350,934.520630 
z"/>
<path fill="#FEFEFE" opacity="1.000000" stroke="none" 
	d="
M1112.665771,674.589600 
	C1092.737549,687.548889 1074.436035,701.401428 1058.145874,717.782654 
	C1021.121765,755.013794 1002.846924,800.208313 1000.996887,852.379517 
	C1000.868164,856.008362 1000.616638,859.632812 1000.359253,864.434143 
	C958.382019,869.317322 918.752991,882.141418 879.752197,901.411987 
	C879.752197,897.194641 879.616333,894.401428 879.773254,891.624756 
	C881.378357,863.218628 880.600769,835.010803 873.274048,807.285767 
	C862.531189,766.634094 839.997986,733.569580 808.504944,706.225769 
	C785.741211,686.461243 760.475952,670.354309 734.106934,655.982239 
	C706.624084,641.003052 678.797546,626.655762 651.221375,611.846008 
	C624.492126,597.490906 598.439636,582.032593 574.319397,563.503357 
	C534.207397,532.689209 504.065918,494.662140 488.816040,445.787994 
	C479.076630,414.574341 475.720428,382.418610 477.040710,350.019165 
	C478.123901,323.437988 481.713470,296.958649 484.236237,270.438354 
	C484.284607,269.930023 484.880249,269.473755 485.650513,268.385895 
	C487.613861,270.063873 489.542847,271.691803 491.449646,273.345367 
	C508.553711,288.177979 525.039856,303.803131 542.873413,317.699280 
	C591.306641,355.439087 646.973267,374.742340 707.813843,380.053284 
	C744.979675,383.297516 782.187317,386.163818 819.282715,390.084351 
	C850.547852,393.388763 881.000977,400.509918 909.626709,414.099579 
	C912.932739,415.669067 916.173035,417.383514 919.388306,419.132782 
	C920.219788,419.585175 920.840759,420.424530 921.946045,421.443481 
	C898.253113,454.450378 883.013794,490.083008 889.728271,532.348450 
	C890.585205,530.434143 891.495422,528.541687 892.290405,526.602051 
	C897.085327,514.903931 901.196594,502.873138 906.744629,491.545349 
	C931.006592,442.007996 971.097839,412.055450 1023.882690,398.098633 
	C1053.640381,390.230438 1084.075928,386.810944 1114.610352,383.998871 
	C1153.081909,380.455841 1191.671265,377.884369 1229.613037,369.997681 
	C1254.480835,364.828552 1278.598145,357.424622 1301.511230,346.277557 
	C1334.150635,330.398773 1361.451782,307.990234 1383.881714,279.540375 
	C1386.296997,276.476776 1388.706665,273.408630 1392.222534,268.939880 
	C1393.351562,274.096802 1394.195923,277.538513 1394.852295,281.015686 
	C1401.179199,314.533630 1404.201294,348.282593 1402.199707,382.417511 
	C1398.368164,447.764526 1372.906982,502.713135 1323.833984,546.447632 
	C1302.340210,565.603271 1278.810669,581.925537 1253.791260,595.989624 
	C1225.927612,611.652527 1197.521606,626.347656 1169.548462,641.819763 
	C1150.613403,652.292969 1132.018066,663.380310 1112.665771,674.589600 
z"/>
<path fill="#FDFDFD" opacity="1.000000" stroke="none" 
	d="
M1112.516357,1087.441650 
	C1082.504272,1066.306885 1053.473877,1044.998291 1023.531311,1025.059692 
	C1004.170593,1012.167542 984.035767,1000.164612 963.263977,989.719849 
	C915.573975,965.739624 865.166687,958.930481 812.632324,969.525757 
	C811.653992,969.723022 810.664246,969.901794 809.671448,969.975525 
	C809.025757,970.023438 808.364685,969.864563 807.333618,969.760132 
	C807.730225,968.880249 807.861389,967.852112 808.440308,967.409973 
	C850.880859,934.988220 896.592957,908.781555 948.311523,894.048828 
	C1008.745117,876.833679 1068.869263,879.655762 1128.755127,896.920349 
	C1177.061890,910.846741 1222.203491,932.137146 1265.840454,956.689758 
	C1291.382324,971.061157 1316.337891,986.475281 1341.538940,1001.450867 
	C1342.933350,1002.279419 1344.160889,1003.388550 1345.943115,1004.724609 
	C1343.723389,1006.766235 1341.934448,1008.611572 1339.947021,1010.210327 
	C1286.508301,1053.203125 1227.444824,1086.155151 1163.037476,1109.692261 
	C1156.423096,1112.109497 1151.156006,1111.750488 1145.345215,1107.921143 
	C1134.779663,1100.958496 1123.874634,1094.511353 1112.516357,1087.441650 
z"/>
<path fill="#FBFCFC" opacity="1.000000" stroke="none" 
	d="
M3320.868652,620.017334 
	C3320.868652,609.450623 3320.868652,599.880005 3320.868652,589.849976 
	C3341.452148,589.849976 3360.986572,589.849976 3381.180664,589.849976 
	C3381.180664,671.126465 3381.180664,752.184387 3381.180664,833.869385 
	C3378.414062,834.063171 3375.853271,834.391296 3373.291260,834.398010 
	C3355.962891,834.443298 3338.627930,834.145203 3321.310059,834.572693 
	C3315.419434,834.718140 3312.427734,832.549744 3309.648438,827.617554 
	C3284.147461,782.358704 3258.404785,737.236145 3232.731201,692.074524 
	C3231.615723,690.112427 3230.486328,688.158325 3227.653564,686.420837 
	C3228.385254,710.619812 3229.406738,734.814453 3229.767090,759.018982 
	C3230.133301,783.629089 3229.848145,808.248962 3229.848145,833.641113 
	C3209.509766,833.641113 3189.758057,833.641113 3169.449707,833.641113 
	C3169.449707,752.649231 3169.449707,671.765198 3169.449707,590.118042 
	C3191.833496,590.118042 3214.289062,590.118042 3238.055908,590.118042 
	C3265.750977,639.507812 3293.791992,689.514099 3322.283691,740.324036 
	C3321.804932,699.962952 3321.336670,660.488220 3320.868652,620.017334 
z"/>
<path fill="#FDFDFD" opacity="1.000000" stroke="none" 
	d="
M2798.035156,811.959412 
	C2798.035156,819.582397 2798.035156,826.211487 2798.035156,833.542175 
	C2795.067383,833.863586 2792.557373,834.361145 2790.045166,834.371155 
	C2772.720215,834.440308 2755.387695,834.134094 2738.072266,834.553345 
	C2731.862549,834.703735 2728.616211,832.393127 2725.659424,827.137634 
	C2700.188721,781.867004 2674.449707,736.747192 2648.783691,691.586548 
	C2647.718750,689.712708 2646.580078,687.880676 2644.513428,684.416260 
	C2645.226562,735.384460 2645.911621,784.333496 2646.604492,833.851196 
	C2625.634277,833.851196 2606.158447,833.851196 2586.035400,833.851196 
	C2586.035400,752.563293 2586.035400,671.503113 2586.035400,589.909180 
	C2608.566650,589.909180 2630.756348,589.909180 2654.201660,589.909180 
	C2682.206299,639.824707 2710.462646,690.188904 2738.730469,740.573669 
	C2737.991943,690.732178 2737.251465,640.770447 2736.500488,590.086792 
	C2757.497314,590.086792 2777.235840,590.086792 2798.035156,590.086792 
	C2798.035156,663.893616 2798.035156,737.429565 2798.035156,811.959412 
z"/>
<path fill="#FCFCFC" opacity="1.000000" stroke="none" 
	d="
M1838.780884,697.999512 
	C1838.780884,661.446533 1838.780884,625.893616 1838.780884,589.358154 
	C1843.078979,589.358154 1846.330811,589.358093 1849.582642,589.358154 
	C1885.237793,589.358337 1920.892822,589.358765 1956.547974,589.358826 
	C1970.916504,589.358826 1985.169800,590.350647 1999.145264,594.013123 
	C2030.401733,602.204163 2045.887817,622.217346 2046.883789,654.568848 
	C2047.753540,682.819946 2035.854126,703.307495 2009.920044,716.894165 
	C2012.684692,718.672424 2014.618530,720.113831 2016.722534,721.236328 
	C2027.772949,727.131348 2034.724365,736.147217 2036.214233,748.584290 
	C2037.836182,762.122620 2038.616089,775.760742 2039.840942,789.348328 
	C2040.497803,796.635193 2040.898315,803.985107 2042.226685,811.156128 
	C2042.990479,815.279236 2045.402222,819.091431 2047.025024,823.062866 
	C2048.318115,826.227234 2049.539795,829.420715 2051.252441,833.766296 
	C2027.997803,833.766296 2006.481201,833.766296 1983.645508,833.766296 
	C1982.469971,828.387695 1980.601929,822.713684 1980.092773,816.920227 
	C1978.985596,804.322021 1978.454346,791.668091 1977.898804,779.027649 
	C1976.694946,751.636536 1967.738281,742.909424 1940.245483,742.735046 
	C1927.680054,742.655334 1915.113892,742.721497 1901.541748,742.721497 
	C1901.541748,773.577820 1901.541748,803.412720 1901.541748,833.822998 
	C1880.357300,833.822998 1860.187744,833.822998 1838.780884,833.822998 
	C1838.780884,788.780762 1838.780884,743.890137 1838.780884,697.999512 
M1984.456909,668.522766 
	C1986.052002,651.649536 1977.782715,641.181824 1959.296509,639.309326 
	C1951.373169,638.506836 1943.352173,638.549500 1935.372559,638.452148 
	C1924.465698,638.319153 1913.555908,638.419006 1902.203125,638.419006 
	C1902.203125,657.476807 1902.203125,675.515869 1902.203125,694.057495 
	C1919.178955,694.057495 1935.445312,694.131226 1951.709839,694.000732 
	C1955.342529,693.971558 1959.016602,693.465637 1962.590454,692.765747 
	C1975.016479,690.332336 1982.974731,683.451233 1984.456909,668.522766 
z"/>
<path fill="#FBFBFB" opacity="1.000000" stroke="none" 
	d="
M2501.778809,353.732544 
	C2494.657471,359.740143 2488.005615,365.211426 2480.699951,371.220367 
	C2482.589600,372.311554 2484.633301,373.566193 2486.743164,374.697876 
	C2497.790039,380.623627 2504.645996,389.750916 2506.093750,402.160645 
	C2507.750977,416.367645 2508.510254,430.677765 2509.775635,444.932861 
	C2510.363281,451.557190 2510.793457,458.245239 2512.118164,464.736450 
	C2512.958252,468.853058 2515.345215,472.647644 2516.981201,476.610168 
	C2518.275146,479.744202 2519.482178,482.914154 2521.189453,487.237061 
	C2497.860596,487.237061 2476.342285,487.237061 2453.499756,487.237061 
	C2452.383789,482.273468 2450.607422,476.916779 2450.068115,471.438324 
	C2448.992188,460.510773 2448.631104,449.513977 2447.903076,438.550507 
	C2447.506104,432.572418 2447.343994,426.543732 2446.409668,420.643372 
	C2444.169678,406.496552 2437.321289,399.491821 2423.118164,397.126282 
	C2417.248047,396.148590 2411.180176,396.179749 2405.197510,396.097443 
	C2394.286865,395.947357 2383.372559,396.054779 2371.523193,396.054779 
	C2371.523193,426.886292 2371.523193,456.725922 2371.523193,487.209045 
	C2350.421631,487.209045 2330.267578,487.209045 2309.404785,487.209045 
	C2309.404785,406.105957 2309.404785,324.973389 2309.404785,243.158829 
	C2311.718994,242.916580 2313.926025,242.486557 2316.133789,242.484070 
	C2352.795166,242.442902 2389.466309,241.975021 2426.113525,242.693588 
	C2440.658203,242.978775 2455.488770,244.525848 2469.597900,247.941330 
	C2500.511475,255.424820 2515.283936,274.823395 2516.636719,306.693390 
	C2517.367188,323.903961 2513.993408,339.845398 2501.778809,353.732544 
M2452.514404,307.452148 
	C2447.159912,295.047241 2436.021729,292.669342 2424.467529,292.200989 
	C2409.182373,291.581360 2393.858154,291.901215 2378.550537,291.908508 
	C2376.341797,291.909576 2374.133057,292.419159 2372.069824,292.675354 
	C2372.069824,311.108887 2372.069824,328.925751 2372.069824,347.661774 
	C2381.929443,347.661774 2391.179199,347.810822 2400.421875,347.621338 
	C2410.384277,347.417114 2420.454590,347.710785 2430.273926,346.333588 
	C2447.653564,343.895996 2455.153320,334.158112 2454.354492,316.818176 
	C2454.232910,314.184143 2453.570557,311.575012 2452.514404,307.452148 
z"/>
<path fill="#FCFCFC" opacity="1.000000" stroke="none" 
	d="
M2082.930664,675.081360 
	C2097.486084,618.212769 2139.916504,584.150452 2197.852783,582.190979 
	C2219.808350,581.448425 2241.138916,584.168884 2260.889893,594.434021 
	C2288.801025,608.940186 2304.672607,632.257141 2310.901367,663.714355 
	C2290.670166,663.714355 2271.221924,663.714355 2251.118652,663.714355 
	C2250.720459,663.055725 2249.912109,662.031128 2249.426514,660.871399 
	C2234.962402,626.313171 2184.186768,623.581360 2162.361328,650.975342 
	C2157.045654,657.647034 2152.142822,665.219971 2149.295410,673.181458 
	C2139.775879,699.799988 2139.364990,726.903564 2150.056152,753.274292 
	C2162.969727,785.126953 2195.020264,798.360840 2226.647705,785.637329 
	C2242.996826,779.060242 2252.743164,766.909607 2256.416992,748.400635 
	C2238.266846,748.400635 2220.847168,748.400635 2202.749023,748.400635 
	C2202.749023,732.269836 2202.749023,717.140137 2202.749023,701.341614 
	C2238.958984,701.341614 2275.145508,701.341614 2312.044922,701.341614 
	C2312.044922,745.333618 2312.044922,789.459045 2312.044922,834.002991 
	C2299.246338,834.002991 2286.687744,834.002991 2273.534180,834.002991 
	C2271.816162,824.460205 2270.145752,815.182739 2268.269043,804.758606 
	C2266.221924,806.645020 2265.172852,807.403198 2264.381348,808.372009 
	C2244.413818,832.810059 2217.978516,841.458435 2187.302734,840.820312 
	C2134.064941,839.712830 2093.329590,801.616211 2082.160156,749.278381 
	C2076.934326,724.791504 2077.516357,700.309570 2082.930664,675.081360 
z"/>
<path fill="#FCFCFD" opacity="1.000000" stroke="none" 
	d="
M3425.616211,758.376404 
	C3417.496582,726.976501 3417.225586,696.286743 3425.697998,665.813904 
	C3438.419189,620.059631 3474.265381,589.608215 3521.386475,584.222412 
	C3541.021240,581.978149 3560.628662,582.315979 3579.897217,587.462219 
	C3618.979980,597.900513 3645.216064,622.507629 3657.913086,660.647461 
	C3669.050293,694.101196 3669.322998,728.312195 3658.419189,761.838562 
	C3643.585449,807.447388 3611.214844,832.994568 3564.010986,839.829163 
	C3544.722656,842.621948 3525.381592,842.037598 3506.466797,837.199585 
	C3464.853027,826.555420 3438.402832,799.952393 3425.616211,758.376404 
M3527.735107,787.788696 
	C3530.698486,788.212280 3533.651123,788.745728 3536.627197,789.042297 
	C3563.723145,791.742798 3585.549561,778.997559 3594.675049,753.419495 
	C3604.603516,725.588989 3604.661377,697.171326 3594.119629,669.441162 
	C3585.206055,645.992798 3566.935791,634.767456 3541.110107,635.065796 
	C3516.336914,635.351929 3498.403809,647.375488 3490.180176,670.918762 
	C3480.792236,697.794434 3480.889893,725.181641 3489.783203,752.204163 
	C3495.651123,770.033020 3507.524658,782.391052 3527.735107,787.788696 
z"/>
<path fill="#FCFCFD" opacity="1.000000" stroke="none" 
	d="
M2789.214355,273.223785 
	C2818.836914,241.493698 2855.871338,233.676071 2896.476562,237.086731 
	C2929.893799,239.893616 2958.009766,253.268860 2978.915039,280.192413 
	C2990.806885,295.507751 2997.978027,312.975250 3001.413574,331.897797 
	C3005.863281,356.407013 3005.722900,380.955353 3000.046143,405.302155 
	C2988.242676,455.925507 2948.896973,489.775940 2897.055176,493.871429 
	C2880.729248,495.161133 2864.382812,495.053528 2848.331055,491.352722 
	C2805.671143,481.517212 2777.673340,455.359680 2764.934326,413.731995 
	C2755.256348,382.107178 2755.759766,349.947357 2764.546387,318.092834 
	C2769.118652,301.517395 2777.211182,286.641479 2789.214355,273.223785 
M2851.820801,435.545349 
	C2854.229980,436.671936 2856.579346,437.955475 2859.057373,438.901398 
	C2891.374512,451.236938 2923.572021,436.308685 2934.509766,403.659546 
	C2936.711182,397.087494 2938.275879,390.159302 2939.037109,383.274078 
	C2941.362793,362.236420 2940.784668,341.379639 2932.346680,321.478638 
	C2925.741943,305.899780 2914.701904,294.931396 2898.134033,290.429810 
	C2864.360107,281.253265 2835.504883,297.546295 2826.406250,331.268982 
	C2820.310791,353.860016 2820.441406,376.736389 2826.329834,399.386169 
	C2830.118896,413.959991 2837.473145,426.400513 2851.820801,435.545349 
z"/>
<path fill="#FBFCFC" opacity="1.000000" stroke="none" 
	d="
M2081.694092,357.999878 
	C2081.694092,319.371582 2081.694092,281.743286 2081.694092,244.285126 
	C2089.082031,242.037750 2248.559326,241.211899 2267.172852,243.245468 
	C2267.172852,259.275391 2267.172852,275.417389 2267.172852,293.058350 
	C2226.997803,293.288330 2186.538330,293.030121 2144.616943,293.207520 
	C2144.521973,307.579315 2144.348633,321.293671 2144.801270,335.882324 
	C2182.454346,335.882324 2219.301270,335.882324 2256.808350,335.882324 
	C2256.808350,352.521576 2256.808350,368.313293 2256.808350,385.098816 
	C2219.730469,385.098816 2182.895996,385.098816 2146.345459,385.098816 
	C2144.158691,393.008911 2143.766846,424.591858 2145.606934,437.400391 
	C2187.208740,437.400391 2228.990479,437.400391 2271.338379,437.400391 
	C2271.338379,454.602203 2271.338379,470.713562 2271.338379,487.348328 
	C2208.373291,487.348328 2145.865234,487.348328 2083.356445,487.355774 
	C2083.103271,487.145691 2082.823975,486.951996 2082.606445,486.703735 
	C2082.400391,486.468231 2082.112061,486.176270 2082.111084,485.908203 
	C2081.957275,443.605499 2081.825928,401.302704 2081.694092,357.999878 
z"/>
<path fill="#FCFCFC" opacity="1.000000" stroke="none" 
	d="
M2358.043945,678.000000 
	C2358.043945,648.104431 2358.043945,619.208923 2358.043945,589.846680 
	C2420.354492,589.846680 2481.568359,589.846680 2543.519043,589.846680 
	C2543.519043,606.006226 2543.519043,622.170227 2543.519043,639.839478 
	C2503.325928,639.883484 2462.876953,639.831970 2421.778809,639.868591 
	C2421.778809,654.128174 2421.778809,667.623169 2421.778809,682.476440 
	C2433.714355,682.905518 2445.915283,682.623474 2458.098877,682.671753 
	C2470.762451,682.721985 2483.426758,682.683044 2496.090576,682.683044 
	C2508.341797,682.683044 2520.592773,682.682983 2533.362793,682.682983 
	C2533.362793,699.261353 2533.362793,714.803772 2533.362793,731.834839 
	C2496.485596,732.332031 2459.393555,731.745850 2421.727051,732.161072 
	C2421.727051,749.381348 2421.727051,765.899109 2421.727051,783.778564 
	C2463.357666,784.332336 2505.126953,783.743408 2547.562012,784.111450 
	C2547.562012,800.775269 2547.562012,816.898743 2547.562012,833.724854 
	C2484.811523,833.724854 2422.043945,833.724854 2358.043945,833.724854 
	C2358.043945,782.074158 2358.043945,730.537109 2358.043945,678.000000 
z"/>
<path fill="#FBFBFB" opacity="1.000000" stroke="none" 
	d="
M1949.176758,440.043030 
	C1961.615845,436.137329 1968.222290,427.846375 1970.395752,416.179779 
	C1971.667969,409.351440 1972.378662,402.318390 1972.403687,395.374023 
	C1972.573120,348.377960 1972.492432,301.381012 1972.492554,254.384338 
	C1972.492554,250.806595 1972.492432,247.228851 1972.492432,243.057632 
	C1993.681763,243.057632 2013.847168,243.057632 2034.722656,243.057632 
	C2034.987549,245.668671 2035.467163,248.206573 2035.469604,250.744919 
	C2035.513916,297.074921 2035.730347,343.406860 2035.346313,389.733734 
	C2035.244629,402.003296 2033.925171,414.363953 2031.988525,426.494934 
	C2028.551147,448.025452 2017.045166,464.642792 1998.897583,476.719940 
	C1988.505981,483.635345 1977.219849,488.500488 1965.067505,491.105682 
	C1941.912842,496.069611 1918.713257,496.142242 1895.748535,490.042816 
	C1856.464722,479.609039 1834.001099,452.954163 1830.237427,412.592377 
	C1829.588379,405.631683 1829.202881,398.619873 1829.189209,391.630707 
	C1829.097412,344.967529 1829.133667,298.304108 1829.153564,251.640747 
	C1829.154663,249.023575 1829.379028,246.406494 1829.529541,243.133057 
	C1849.773804,243.133057 1869.595459,243.133057 1890.727417,243.133057 
	C1890.880249,246.346542 1891.188354,249.840134 1891.190796,253.333908 
	C1891.222778,300.663879 1891.084839,347.994507 1891.337891,395.323151 
	C1891.380127,403.237915 1892.372070,411.307648 1894.170898,419.015045 
	C1896.807007,430.310760 1904.392090,437.424652 1915.764648,440.264496 
	C1926.639282,442.979919 1937.514771,443.040894 1949.176758,440.043030 
z"/>
<path fill="#FCFCFD" opacity="1.000000" stroke="none" 
	d="
M1752.910278,834.405701 
	C1747.469238,834.726501 1746.786377,831.328796 1745.728394,828.097107 
	C1742.620605,818.603516 1739.396240,809.148071 1736.203491,799.682251 
	C1735.155640,796.575684 1734.064453,793.483643 1732.892090,790.093140 
	C1705.634277,790.093140 1678.763550,790.093140 1651.267578,790.093140 
	C1646.623413,804.736328 1642.025024,819.235046 1637.365356,833.927002 
	C1615.703003,833.927002 1594.500610,833.927002 1572.162964,833.927002 
	C1601.614380,752.062988 1630.780151,670.993286 1660.005005,589.759155 
	C1683.154907,589.759155 1705.733032,589.759155 1729.105835,589.759155 
	C1757.692261,670.735229 1786.246826,751.621033 1815.104492,833.365295 
	C1804.068359,835.463684 1793.887573,834.107300 1783.806885,834.360718 
	C1773.814941,834.612061 1763.811768,834.413696 1752.910278,834.405701 
M1717.996460,733.988831 
	C1709.821167,708.701477 1701.645874,683.414124 1693.470581,658.126831 
	C1692.747437,658.150879 1692.024292,658.174927 1691.301147,658.199036 
	C1683.131470,684.550964 1674.961914,710.902954 1666.455688,738.340942 
	C1684.106445,738.340942 1700.010376,738.378235 1715.912720,738.230835 
	C1716.707886,738.223450 1717.488281,736.614746 1717.996460,733.988831 
z"/>
<path fill="#FBFCFC" opacity="1.000000" stroke="none" 
	d="
M1774.551514,378.547119 
	C1759.016724,393.447449 1740.401978,399.032898 1720.287720,399.900452 
	C1703.653442,400.617889 1686.968994,400.173492 1670.306763,400.238708 
	C1667.057007,400.251404 1663.807251,400.240509 1659.549683,400.240509 
	C1659.549683,429.768707 1659.549683,458.258850 1659.549683,487.296326 
	C1638.053345,487.296326 1617.607666,487.296326 1596.672485,487.296326 
	C1596.672485,405.701141 1596.672485,324.598358 1596.672485,242.891632 
	C1599.458740,242.725754 1601.715576,242.475891 1603.972534,242.474319 
	C1638.632690,242.450012 1673.302246,241.990936 1707.947876,242.701294 
	C1720.805786,242.964920 1734.006226,244.569138 1746.353394,248.040924 
	C1774.462158,255.944489 1790.380981,275.305878 1794.561523,304.334106 
	C1796.586182,318.393158 1795.837769,332.240753 1792.516357,345.989594 
	C1789.561401,358.222229 1784.020386,369.069519 1774.551514,378.547119 
M1700.434570,292.229706 
	C1686.967285,292.330444 1673.482788,291.995178 1660.233032,292.437653 
	C1660.233032,312.620636 1660.233032,331.407074 1660.233032,350.170685 
	C1676.862671,350.170685 1692.792358,350.558594 1708.691040,350.023560 
	C1718.055176,349.708435 1726.136597,345.893555 1730.648926,336.835510 
	C1740.752441,316.553772 1730.484375,296.323639 1708.237305,292.734833 
	C1706.276001,292.418457 1704.267212,292.396820 1700.434570,292.229706 
z"/>
<path fill="#FAFAFA" opacity="1.000000" stroke="none" 
	d="
M805.993286,170.105118 
	C932.974609,134.909058 1054.852417,144.663498 1171.292847,206.228455 
	C1220.270142,232.123886 1261.450562,267.693268 1295.031616,311.885498 
	C1297.193237,314.730072 1299.156494,317.725342 1301.874634,321.593475 
	C1291.868530,326.546478 1282.714722,331.077667 1273.361938,335.707367 
	C1186.753052,234.181763 1078.039062,179.015366 944.642395,179.242050 
	C811.230164,179.468750 702.716064,234.996643 616.171448,337.083466 
	C607.054749,332.743652 597.845398,328.359711 587.326233,323.352295 
	C590.321777,319.148987 592.643921,315.697632 595.157776,312.391937 
	C639.883667,253.576752 697.520874,211.877899 765.672607,184.298752 
	C778.620850,179.058945 792.020935,174.935684 805.993286,170.105118 
z"/>
<path fill="#FBFBFB" opacity="1.000000" stroke="none" 
	d="
M2888.005371,639.400879 
	C2866.744385,639.398071 2846.490723,639.398071 2825.603516,639.398071 
	C2825.603516,622.652954 2825.603516,606.783569 2825.603516,590.853210 
	C2832.545166,588.916809 3006.672852,588.108459 3027.472656,590.042114 
	C3027.472656,606.022705 3027.472656,622.093506 3027.472656,639.317261 
	C3004.621826,639.317261 2981.813721,639.317261 2958.219238,639.317261 
	C2958.219238,704.621216 2958.219238,768.791443 2958.219238,833.691284 
	C2936.966797,833.691284 2916.520264,833.691284 2894.950928,833.691284 
	C2894.950928,830.021912 2894.950928,826.431946 2894.950928,822.841980 
	C2894.950684,765.863770 2894.951416,708.885620 2894.948486,651.907410 
	C2894.948486,649.241943 2894.790283,646.569702 2894.929688,643.912476 
	C2895.167236,639.394836 2892.207031,639.297058 2888.005371,639.400879 
z"/>
<path fill="#FCFCFD" opacity="1.000000" stroke="none" 
	d="
M759.891296,1083.738281 
	C777.779236,1064.445312 796.252380,1045.805176 816.640747,1029.059204 
	C849.767395,1001.851074 886.088135,996.161560 926.180237,1010.782104 
	C946.648438,1018.246338 966.044678,1027.737793 984.152527,1039.714355 
	C1000.540283,1050.553345 1016.508179,1062.032593 1032.558472,1073.375000 
	C1049.155151,1085.103516 1065.636841,1096.994873 1082.148193,1108.843750 
	C1085.905762,1111.540161 1089.578613,1114.354614 1094.060303,1117.687012 
	C1091.573975,1119.724976 1089.783691,1121.525269 1087.693726,1122.854248 
	C1065.533325,1136.945190 1041.140503,1139.913818 1015.635315,1137.067627 
	C990.964233,1134.314575 967.474304,1126.906250 944.147888,1118.840942 
	C915.515076,1108.940674 887.003113,1098.651855 858.134155,1089.491577 
	C845.517944,1085.488403 832.227783,1083.340698 819.096863,1081.291748 
	C799.686584,1078.262939 780.551392,1080.027222 761.121948,1086.273315 
	C760.095398,1084.925171 759.993347,1084.331665 759.891296,1083.738281 
z"/>
<path fill="#FCFCFC" opacity="1.000000" stroke="none" 
	d="
M2680.282227,292.481293 
	C2676.747070,292.694244 2674.184570,292.906891 2670.668457,293.198730 
	C2670.668457,358.229340 2670.668457,422.694427 2670.668457,487.369598 
	C2649.485107,487.369598 2629.314209,487.369598 2608.121094,487.369598 
	C2608.121094,422.477692 2608.121094,358.069580 2608.121094,292.554321 
	C2584.350342,292.554321 2561.570068,292.554321 2538.342285,292.554321 
	C2538.342285,275.580109 2538.342285,259.718079 2538.342285,243.155884 
	C2605.534912,243.155884 2672.609375,243.155884 2740.369141,243.155884 
	C2740.369141,259.306610 2740.369141,275.434692 2740.369141,292.481018 
	C2720.425293,292.481018 2700.840088,292.481018 2680.282227,292.481293 
z"/>
<path fill="#FCFCFC" opacity="1.000000" stroke="none" 
	d="
M676.349731,983.979614 
	C715.660034,994.546387 754.581238,994.664368 794.509521,988.077881 
	C793.495911,989.804871 793.190857,990.807129 792.521667,991.394592 
	C773.509399,1008.084045 754.617676,1024.916016 735.371216,1041.331909 
	C717.816589,1056.304810 698.874573,1069.116455 677.020935,1077.290771 
	C669.965698,1079.929688 664.082458,1079.605591 657.212097,1076.156494 
	C581.512695,1038.153076 516.307739,986.879517 461.410004,922.430237 
	C460.115326,920.910217 458.822510,919.385071 457.613647,917.797791 
	C457.240845,917.308228 457.150452,916.603699 456.600769,915.087341 
	C466.008392,914.216980 474.998535,915.753418 483.931946,916.907837 
	C513.186218,920.688293 541.075928,929.452820 568.140869,940.914734 
	C586.212341,948.568054 603.926941,957.088684 622.137939,964.380249 
	C639.715698,971.418213 657.725220,977.377625 676.349731,983.979614 
z"/>
<path fill="#FAFAFB" opacity="1.000000" stroke="none" 
	d="
M3056.908447,793.998474 
	C3056.908447,725.496277 3056.908447,657.993713 3056.908447,589.920471 
	C3078.225830,589.920471 3098.692627,589.920471 3119.512695,589.920471 
	C3119.512695,671.177063 3119.512695,751.985229 3119.512695,832.738464 
	C3112.551514,834.778625 3071.636963,835.354858 3056.908447,833.503723 
	C3056.908447,820.793579 3056.908447,807.895874 3056.908447,793.998474 
z"/>
<path fill="#FBFBFB" opacity="1.000000" stroke="none" 
	d="
M762.843506,907.718689 
	C779.958008,910.996216 796.331726,912.496887 813.461609,911.579346 
	C811.895020,913.026855 810.433655,914.612122 808.746216,915.901428 
	C776.324158,940.673645 739.753113,950.906311 699.184509,947.075256 
	C679.540588,945.220154 660.527222,940.562805 641.807800,934.454651 
	C598.376343,920.282776 558.445557,898.074890 515.215271,880.119629 
	C517.791443,877.841797 519.482483,876.031616 521.466858,874.639587 
	C548.655945,855.567261 578.713135,850.909302 610.903748,856.884277 
	C632.944214,860.975220 653.811646,868.741516 674.556335,876.923218 
	C690.640869,883.266968 706.579041,890.024414 722.864197,895.803406 
	C735.686157,900.353455 748.938171,903.691833 762.843506,907.718689 
z"/>
<path fill="#FAFAFA" opacity="1.000000" stroke="none" 
	d="
M1397.412476,574.421509 
	C1401.448608,703.140076 1361.298096,814.627686 1274.739868,910.190247 
	C1264.123291,905.550415 1254.238770,901.230530 1243.304688,896.451904 
	C1245.656738,893.805420 1247.267212,891.870422 1249.004272,890.056519 
	C1308.804565,827.606201 1344.982666,753.283691 1360.018311,668.452209 
	C1367.215332,627.846619 1368.179688,587.044983 1362.522095,546.124268 
	C1362.142456,543.377502 1362.231323,539.794800 1363.684204,537.695801 
	C1371.033569,527.078552 1378.906372,516.823669 1387.407593,505.345581 
	C1393.650513,528.270447 1395.623413,550.848877 1397.412476,574.421509 
z"/>
<path fill="#FAFAFA" opacity="1.000000" stroke="none" 
	d="
M525.995605,566.761230 
	C519.280212,664.298645 543.268921,752.895447 596.536072,834.776428 
	C584.422119,835.618347 573.091858,836.405762 560.208801,837.301147 
	C501.314209,739.422302 481.490417,633.564209 499.790955,517.782959 
	C506.154419,525.791443 511.024139,531.966919 515.951965,538.095703 
	C517.619263,540.169373 519.200928,542.406189 521.225342,544.080444 
	C526.698303,548.606934 528.286560,554.120544 526.463989,560.875671 
	C526.038208,562.453796 526.172485,564.183105 525.995605,566.761230 
z"/>
<path fill="#F6F7F7" opacity="1.000000" stroke="none" 
	d="
M3235.012695,1045.543335 
	C3236.169678,1048.655762 3235.604736,1050.153198 3232.834229,1050.157227 
	C3225.190674,1050.168579 3217.546875,1050.161133 3209.162354,1050.161133 
	C3206.302979,1043.849487 3203.418457,1037.580688 3200.616211,1031.275391 
	C3195.524658,1019.818237 3195.545166,1019.809143 3181.489258,1021.219849 
	C3181.489258,1030.500610 3181.489258,1039.945923 3181.489258,1049.734009 
	C3172.013184,1049.734009 3163.835693,1049.734009 3155.100586,1049.734009 
	C3155.100586,1017.451172 3155.100586,985.653931 3155.100586,953.259338 
	C3158.033691,953.017761 3160.598389,952.635925 3163.165039,952.623779 
	C3176.156494,952.562195 3189.150635,952.462708 3202.140381,952.631226 
	C3218.495850,952.843262 3228.400635,958.974304 3233.197754,971.485535 
	C3239.044678,986.733643 3235.822266,1000.288696 3223.756104,1011.275269 
	C3223.034912,1011.932007 3222.407715,1012.692078 3221.378906,1013.783691 
	C3225.775391,1024.060059 3230.211426,1034.429443 3235.012695,1045.543335 
M3194.559082,975.996582 
	C3190.367432,975.996582 3186.176025,975.996582 3182.089844,975.996582 
	C3182.089844,983.713867 3182.089844,990.138855 3182.089844,997.177979 
	C3188.067627,997.177979 3193.348145,997.549622 3198.556396,997.093384 
	C3206.968994,996.356567 3210.124268,991.713562 3208.445312,983.446655 
	C3207.324219,977.927307 3205.595215,976.858887 3194.559082,975.996582 
z"/>
<path fill="#FAFAFA" opacity="1.000000" stroke="none" 
	d="
M2773.767578,1044.114258 
	C2767.107422,1046.307739 2761.166504,1049.432983 2755.092285,1049.717773 
	C2739.182861,1050.463623 2723.215088,1049.969360 2706.554932,1049.969360 
	C2706.554932,1017.895752 2706.554932,986.108582 2706.554932,953.591797 
	C2708.388184,953.303223 2710.546143,952.686340 2712.708984,952.669067 
	C2724.694336,952.573547 2736.683838,952.476685 2748.665771,952.698669 
	C2753.295898,952.784424 2758.019287,953.253357 2762.511719,954.332642 
	C2776.235596,957.629578 2785.558838,965.961792 2789.305664,979.765442 
	C2793.129639,993.853271 2793.237305,1008.112549 2789.584717,1022.236694 
	C2787.269287,1031.189575 2782.524658,1038.726929 2773.767578,1044.114258 
M2765.100586,997.660034 
	C2764.847900,995.346436 2764.705811,993.014526 2764.324219,990.722412 
	C2762.613525,980.449829 2758.899414,976.865356 2748.605713,976.153625 
	C2743.427979,975.795654 2738.205078,976.091187 2732.869629,976.091187 
	C2732.869629,993.998413 2732.869629,1010.759766 2732.869629,1027.889404 
	C2738.809570,1027.889404 2744.125244,1028.298828 2749.354248,1027.798462 
	C2758.301514,1026.942139 2762.524658,1023.007141 2764.040039,1014.219421 
	C2764.882324,1009.336548 2764.877197,1004.307556 2765.100586,997.660034 
z"/>
<path fill="#F8F8F9" opacity="1.000000" stroke="none" 
	d="
M2993.647461,990.351929 
	C2997.513428,990.521118 3000.420654,990.690186 3003.763184,990.884583 
	C3003.763184,998.022400 3003.763184,1004.542419 3003.763184,1012.148438 
	C2990.793213,1012.148438 2977.995117,1012.148438 2964.557129,1012.148438 
	C2964.557129,1017.691223 2964.557129,1022.195923 2964.557129,1027.933350 
	C2979.007812,1027.933350 2993.795898,1027.933350 3009.107910,1027.933350 
	C3009.107910,1035.641968 3009.107910,1042.148560 3009.107910,1049.437500 
	C2985.603271,1049.437500 2962.162109,1049.437500 2938.010254,1049.437500 
	C2938.010254,1017.570801 2938.010254,985.525085 2938.010254,953.041992 
	C2961.651367,953.041992 2984.849365,953.041992 3008.865967,953.041992 
	C3008.865967,960.022034 3008.865967,966.798523 3008.865967,974.844543 
	C2994.378662,974.844543 2979.593018,974.844543 2964.370117,974.844543 
	C2964.370117,980.283264 2964.370117,984.508728 2964.370117,990.240601 
	C2973.697998,990.277283 2983.193359,990.314575 2993.647461,990.351929 
z"/>
<path fill="#FAFAFA" opacity="1.000000" stroke="none" 
	d="
M1330.422119,951.370605 
	C1314.511475,946.543518 1299.363770,941.970276 1283.619995,937.216919 
	C1284.889648,935.842712 1285.399414,934.913147 1286.182007,934.499207 
	C1307.356445,923.301697 1328.554199,912.148682 1349.757568,901.005920 
	C1368.126465,891.352661 1387.050049,883.204041 1407.959717,881.094177 
	C1416.504517,880.231995 1425.126099,880.130737 1433.958252,879.670471 
	C1431.008301,888.948914 1382.945557,946.071045 1365.217529,961.652222 
	C1354.090942,958.373718 1342.638184,954.999023 1330.422119,951.370605 
z"/>
<path fill="#F8F8F9" opacity="1.000000" stroke="none" 
	d="
M1879.199585,952.633423 
	C1881.442871,953.817322 1883.810913,954.911011 1883.895630,956.159546 
	C1884.296997,962.074036 1884.074951,968.030762 1884.074951,974.907654 
	C1868.788940,974.907654 1854.223755,974.907654 1839.021851,974.907654 
	C1839.021851,980.280212 1839.021851,984.715027 1839.021851,990.129761 
	C1852.150269,990.129761 1864.991821,990.129761 1878.526611,990.129761 
	C1878.526611,997.871582 1878.526611,1004.655762 1878.526611,1012.408325 
	C1865.299561,1012.408325 1852.448608,1012.408325 1838.989746,1012.408325 
	C1838.989746,1017.816589 1838.989746,1022.285706 1838.989746,1027.734741 
	C1853.549316,1027.734741 1868.056885,1027.734741 1883.344727,1027.734741 
	C1883.344727,1035.422607 1883.344727,1042.170654 1883.344727,1049.575073 
	C1859.941895,1049.575073 1836.491333,1049.575073 1812.463623,1049.575073 
	C1812.463623,1017.536072 1812.463623,985.711853 1812.463623,952.614563 
	C1834.492188,952.614563 1856.382202,952.614563 1879.199585,952.633423 
z"/>
<path fill="#F6F7F7" opacity="1.000000" stroke="none" 
	d="
M1588.508423,966.335693 
	C1588.508423,961.475708 1588.508423,957.570068 1588.508423,952.594666 
	C1597.873047,952.594666 1606.115845,952.592590 1614.358643,952.595154 
	C1621.689575,952.597473 1629.028687,952.384766 1636.349976,952.652039 
	C1656.937622,953.403381 1669.504150,966.660583 1669.528564,987.395935 
	C1669.552246,1007.497375 1656.091431,1021.426880 1635.934937,1021.997803 
	C1629.358643,1022.184143 1622.772583,1022.027283 1615.394531,1022.027283 
	C1615.394531,1031.619141 1615.394531,1040.166748 1615.394531,1049.566040 
	C1606.505005,1050.736328 1598.348633,1050.209961 1588.798706,1049.893799 
	C1588.190430,1035.932617 1588.599731,1022.092651 1588.524658,1008.276978 
	C1588.450439,994.614990 1588.508423,980.952393 1588.508423,966.335693 
M1615.582886,977.056396 
	C1615.582886,984.251465 1615.582886,991.446472 1615.582886,999.572144 
	C1620.704468,999.572144 1624.957031,999.622803 1629.207520,999.546631 
	C1630.856445,999.517090 1632.549805,999.391907 1634.137695,998.981018 
	C1640.302612,997.385803 1642.906738,993.283264 1642.455933,986.144348 
	C1642.031128,979.417053 1639.429932,976.185364 1632.894043,975.634521 
	C1627.625000,975.190491 1622.281860,975.623535 1615.582886,977.056396 
z"/>
<path fill="#FAFAFA" opacity="1.000000" stroke="none" 
	d="
M2473.608398,1019.337524 
	C2482.165527,996.897461 2490.457275,975.184998 2498.874023,953.145508 
	C2507.469727,953.145508 2515.688721,953.145508 2525.282959,953.145508 
	C2537.323242,984.772644 2549.556641,1016.906921 2562.073730,1049.785645 
	C2552.368896,1049.785645 2543.801758,1049.785645 2534.490234,1049.785645 
	C2532.433105,1044.811401 2530.063965,1039.733154 2528.241943,1034.465698 
	C2526.860107,1030.470337 2524.773193,1028.455933 2520.311279,1028.627563 
	C2513.357910,1028.895264 2506.386719,1028.698486 2498.643066,1028.698486 
	C2495.625000,1035.748169 2492.660400,1042.672729 2489.594727,1049.833984 
	C2480.828125,1049.833984 2472.252197,1049.833984 2462.825439,1049.833984 
	C2465.079590,1039.204712 2469.922607,1029.867310 2473.608398,1019.337524 
M2508.022461,1006.373108 
	C2511.602783,1006.373108 2515.182861,1006.373108 2520.035645,1006.373108 
	C2517.393799,999.325500 2515.189209,993.444641 2512.984375,987.563843 
	C2509.027100,992.804443 2507.028320,997.916199 2505.303711,1003.119019 
	C2505.037354,1003.922058 2506.030518,1005.142700 2508.022461,1006.373108 
z"/>
<path fill="#FAFAFA" opacity="1.000000" stroke="none" 
	d="
M3581.641602,1044.027710 
	C3580.161133,1047.489746 3579.418457,1050.370850 3575.350586,1050.247070 
	C3567.766113,1050.016113 3560.169434,1050.180664 3551.222656,1050.180664 
	C3563.877930,1017.025085 3576.064453,985.097961 3588.308838,953.018494 
	C3597.133301,953.018494 3605.367920,953.018494 3614.643555,953.018494 
	C3626.717285,984.748047 3638.854248,1016.643860 3651.375000,1049.548706 
	C3641.621094,1049.548706 3633.152832,1049.548706 3623.844971,1049.548706 
	C3621.227051,1043.358887 3618.399658,1036.673828 3615.059326,1028.776001 
	C3607.203369,1028.776001 3598.962891,1028.543335 3590.756348,1028.968140 
	C3589.071777,1029.055298 3586.979248,1031.310059 3586.015869,1033.078491 
	C3584.277832,1036.267700 3583.250488,1039.844360 3581.641602,1044.027710 
M3605.683594,996.038086 
	C3604.385498,993.069824 3603.087402,990.101562 3601.168701,985.714539 
	C3598.296143,993.225220 3596.008789,999.206177 3593.505615,1005.750977 
	C3599.230469,1005.750977 3603.648926,1005.750977 3608.799072,1005.750977 
	C3607.750244,1002.471619 3606.960205,1000.000977 3605.683594,996.038086 
z"/>
<path fill="#F8F8F9" opacity="1.000000" stroke="none" 
	d="
M2028.240234,1032.067261 
	C2028.240356,1028.217529 2028.240356,1025.271973 2028.240356,1021.250427 
	C2032.328125,1022.528748 2035.440674,1023.425720 2038.501587,1024.473511 
	C2047.786499,1027.651611 2057.308594,1028.779785 2067.049561,1027.691895 
	C2070.333740,1027.325073 2073.934326,1026.982544 2074.302734,1022.443848 
	C2074.632324,1018.381836 2072.079346,1016.365784 2068.760986,1015.128174 
	C2065.337158,1013.851135 2061.809570,1012.854187 2058.349121,1011.671692 
	C2053.316406,1009.952026 2048.139404,1008.537964 2043.314453,1006.352417 
	C2031.357788,1000.936768 2025.862671,991.830872 2026.571045,979.500793 
	C2027.279541,967.166809 2033.754028,958.028015 2045.898682,954.285889 
	C2062.622559,949.132751 2079.301025,950.469788 2095.924316,956.084290 
	C2095.924316,964.219055 2095.924316,971.793701 2095.924316,980.205994 
	C2092.269043,979.225464 2089.232666,977.969238 2086.102295,977.656311 
	C2077.562500,976.802612 2068.989502,976.162842 2060.414551,975.834595 
	C2057.454346,975.721191 2054.204590,976.599182 2053.924316,980.571899 
	C2053.656982,984.362549 2056.528320,985.690125 2059.428955,986.679504 
	C2063.202881,987.966614 2067.098389,988.901306 2070.854736,990.233093 
	C2076.175049,992.119568 2081.645020,993.781372 2086.643555,996.336365 
	C2097.599609,1001.936279 2102.287109,1011.520752 2101.591064,1023.506775 
	C2100.884521,1035.670288 2094.479492,1044.295776 2082.973145,1048.242554 
	C2064.563477,1054.557007 2046.452148,1052.498413 2028.240112,1045.616089 
	C2028.240112,1040.923584 2028.240112,1036.947510 2028.240234,1032.067261 
z"/>
<path fill="#F6F7F7" opacity="1.000000" stroke="none" 
	d="
M2319.379883,979.570557 
	C2309.178711,975.625793 2299.387939,974.186829 2289.295898,975.648315 
	C2279.040039,977.133606 2273.800537,981.913086 2272.069824,992.128357 
	C2271.193115,997.302979 2270.878906,1002.761536 2271.471680,1007.959290 
	C2272.966064,1021.054993 2279.959717,1027.700073 2293.296875,1027.756714 
	C2301.145264,1027.790039 2309.019043,1025.865234 2316.845703,1024.598145 
	C2319.362061,1024.190918 2321.763428,1023.071472 2324.414062,1022.214233 
	C2324.880371,1023.731750 2325.382812,1024.620972 2325.392090,1025.515137 
	C2325.459229,1032.150513 2325.428467,1038.786987 2325.428467,1046.669800 
	C2303.781250,1053.192505 2282.642090,1055.708984 2262.325684,1042.751831 
	C2255.418945,1038.346802 2250.584717,1031.822021 2247.970215,1024.075317 
	C2246.179199,1018.768127 2244.680420,1013.177673 2244.260254,1007.622375 
	C2241.450195,970.477173 2261.954346,949.580261 2299.090332,951.373352 
	C2307.763428,951.792175 2316.259277,953.008911 2325.117432,957.198547 
	C2325.117432,963.918335 2325.249512,970.836182 2325.064941,977.745483 
	C2324.964111,981.514282 2322.430664,980.725159 2319.379883,979.570557 
z"/>
<path fill="#F1F2F2" opacity="1.000000" stroke="none" 
	d="
M3403.442627,1050.211914 
	C3395.598389,1050.245728 3388.692139,1050.245728 3381.333984,1050.245728 
	C3381.333984,1017.366516 3381.333984,985.543518 3381.333984,953.136597 
	C3390.031494,953.136597 3398.179199,953.136597 3406.994141,953.136597 
	C3407.243164,955.948120 3407.659668,958.491577 3407.664307,961.035767 
	C3407.711914,987.696228 3407.773926,1014.357422 3407.588135,1041.016724 
	C3407.565918,1044.185547 3409.837646,1048.698975 3403.442627,1050.211914 
z"/>
<path fill="#F1F2F2" opacity="1.000000" stroke="none" 
	d="
M3383.715332,933.778625 
	C3387.656494,924.563354 3391.316162,916.090149 3395.043457,907.459961 
	C3403.183838,907.459961 3410.942871,907.459961 3419.949219,907.459961 
	C3417.089111,913.670654 3414.690918,918.967529 3412.216064,924.228516 
	C3409.697754,929.582092 3407.103516,934.900269 3404.479248,940.366394 
	C3396.918213,940.366394 3389.767334,940.366394 3381.619385,940.366394 
	C3382.357178,937.988953 3382.895264,936.254822 3383.715332,933.778625 
z"/>
<path fill="#F1F2F2" opacity="1.000000" stroke="none" 
	d="
M759.349976,1083.897583 
	C759.993347,1084.331665 760.095398,1084.925171 760.326721,1086.412598 
	C758.738892,1088.196045 757.021851,1089.085449 755.304810,1089.974731 
	C755.025696,1089.678345 754.746582,1089.381958 754.467468,1089.085571 
	C755.914551,1087.409424 757.361633,1085.733154 759.349976,1083.897583 
z"/>
<path fill="#293038" opacity="1.000000" stroke="none" 
	d="
M1984.383667,669.387329 
	C1982.974731,683.451233 1975.016479,690.332336 1962.590454,692.765747 
	C1959.016602,693.465637 1955.342529,693.971558 1951.709839,694.000732 
	C1935.445312,694.131226 1919.178955,694.057495 1902.203125,694.057495 
	C1902.203125,675.515869 1902.203125,657.476807 1902.203125,638.419006 
	C1913.555908,638.419006 1924.465698,638.319153 1935.372559,638.452148 
	C1943.352173,638.549500 1951.373169,638.506836 1959.296509,639.309326 
	C1977.782715,641.181824 1986.052002,651.649536 1984.383667,669.387329 
z"/>
<path fill="#293038" opacity="1.000000" stroke="none" 
	d="
M2452.836426,308.203247 
	C2453.570557,311.575012 2454.232910,314.184143 2454.354492,316.818176 
	C2455.153320,334.158112 2447.653564,343.895996 2430.273926,346.333588 
	C2420.454590,347.710785 2410.384277,347.417114 2400.421875,347.621338 
	C2391.179199,347.810822 2381.929443,347.661774 2372.069824,347.661774 
	C2372.069824,328.925751 2372.069824,311.108887 2372.069824,292.675354 
	C2374.133057,292.419159 2376.341797,291.909576 2378.550537,291.908508 
	C2393.858154,291.901215 2409.182373,291.581360 2424.467529,292.200989 
	C2436.021729,292.669342 2447.159912,295.047241 2452.836426,308.203247 
z"/>
<path fill="#272E36" opacity="1.000000" stroke="none" 
	d="
M3526.935059,787.610168 
	C3507.524658,782.391052 3495.651123,770.033020 3489.783203,752.204163 
	C3480.889893,725.181641 3480.792236,697.794434 3490.180176,670.918762 
	C3498.403809,647.375488 3516.336914,635.351929 3541.110107,635.065796 
	C3566.935791,634.767456 3585.206055,645.992798 3594.119629,669.441162 
	C3604.661377,697.171326 3604.603516,725.588989 3594.675049,753.419495 
	C3585.549561,778.997559 3563.723145,791.742798 3536.627197,789.042297 
	C3533.651123,788.745728 3530.698486,788.212280 3526.935059,787.610168 
z"/>
<path fill="#272E36" opacity="1.000000" stroke="none" 
	d="
M2851.193359,435.147827 
	C2837.473145,426.400513 2830.118896,413.959991 2826.329834,399.386169 
	C2820.441406,376.736389 2820.310791,353.860016 2826.406250,331.268982 
	C2835.504883,297.546295 2864.360107,281.253265 2898.134033,290.429810 
	C2914.701904,294.931396 2925.741943,305.899780 2932.346680,321.478638 
	C2940.784668,341.379639 2941.362793,362.236420 2939.037109,383.274078 
	C2938.275879,390.159302 2936.711182,397.087494 2934.509766,403.659546 
	C2923.572021,436.308685 2891.374512,451.236938 2859.057373,438.901398 
	C2856.579346,437.955475 2854.229980,436.671936 2851.193359,435.147827 
z"/>
<path fill="#2D343B" opacity="1.000000" stroke="none" 
	d="
M1718.135986,734.870239 
	C1717.488281,736.614746 1716.707886,738.223450 1715.912720,738.230835 
	C1700.010376,738.378235 1684.106445,738.340942 1666.455688,738.340942 
	C1674.961914,710.902954 1683.131470,684.550964 1691.301147,658.199036 
	C1692.024292,658.174927 1692.747437,658.150879 1693.470581,658.126831 
	C1701.645874,683.414124 1709.821167,708.701477 1718.135986,734.870239 
z"/>
<path fill="#293038" opacity="1.000000" stroke="none" 
	d="
M1701.357422,292.234009 
	C1704.267212,292.396820 1706.276001,292.418457 1708.237305,292.734833 
	C1730.484375,296.323639 1740.752441,316.553772 1730.648926,336.835510 
	C1726.136597,345.893555 1718.055176,349.708435 1708.691040,350.023560 
	C1692.792358,350.558594 1676.862671,350.170685 1660.233032,350.170685 
	C1660.233032,331.407074 1660.233032,312.620636 1660.233032,292.437653 
	C1673.482788,291.995178 1686.967285,292.330444 1701.357422,292.234009 
z"/>
<path fill="#2D343B" opacity="1.000000" stroke="none" 
	d="
M3195.475342,975.997437 
	C3205.595215,976.858887 3207.324219,977.927307 3208.445312,983.446655 
	C3210.124268,991.713562 3206.968994,996.356567 3198.556396,997.093384 
	C3193.348145,997.549622 3188.067627,997.177979 3182.089844,997.177979 
	C3182.089844,990.138855 3182.089844,983.713867 3182.089844,975.996582 
	C3186.176025,975.996582 3190.367432,975.996582 3195.475342,975.997437 
z"/>
<path fill="#2D343B" opacity="1.000000" stroke="none" 
	d="
M2765.177246,998.502197 
	C2764.877197,1004.307556 2764.882324,1009.336548 2764.040039,1014.219421 
	C2762.524658,1023.007141 2758.301514,1026.942139 2749.354248,1027.798462 
	C2744.125244,1028.298828 2738.809570,1027.889404 2732.869629,1027.889404 
	C2732.869629,1010.759766 2732.869629,993.998413 2732.869629,976.091187 
	C2738.205078,976.091187 2743.427979,975.795654 2748.605713,976.153625 
	C2758.899414,976.865356 2762.613525,980.449829 2764.324219,990.722412 
	C2764.705811,993.014526 2764.847900,995.346436 2765.177246,998.502197 
z"/>
<path fill="#2D343B" opacity="1.000000" stroke="none" 
	d="
M1616.277344,976.361938 
	C1622.281860,975.623535 1627.625000,975.190491 1632.894043,975.634521 
	C1639.429932,976.185364 1642.031128,979.417053 1642.455933,986.144348 
	C1642.906738,993.283264 1640.302612,997.385803 1634.137695,998.981018 
	C1632.549805,999.391907 1630.856445,999.517090 1629.207520,999.546631 
	C1624.957031,999.622803 1620.704468,999.572144 1615.582886,999.572144 
	C1615.582886,991.446472 1615.582886,984.251465 1616.277344,976.361938 
z"/>
<path fill="#2D343B" opacity="1.000000" stroke="none" 
	d="
M2507.231689,1006.271667 
	C2506.030518,1005.142700 2505.037354,1003.922058 2505.303711,1003.119019 
	C2507.028320,997.916199 2509.027100,992.804443 2512.984375,987.563843 
	C2515.189209,993.444641 2517.393799,999.325500 2520.035645,1006.373108 
	C2515.182861,1006.373108 2511.602783,1006.373108 2507.231689,1006.271667 
z"/>
<path fill="#2D343B" opacity="1.000000" stroke="none" 
	d="
M3605.926758,996.784180 
	C3606.960205,1000.000977 3607.750244,1002.471619 3608.799072,1005.750977 
	C3603.648926,1005.750977 3599.230469,1005.750977 3593.505615,1005.750977 
	C3596.008789,999.206177 3598.296143,993.225220 3601.168701,985.714539 
	C3603.087402,990.101562 3604.385498,993.069824 3605.926758,996.784180 
z"/>
</svg>